<svg viewBox="0 0 100 100" xmlns="http://www.w3.org/2000/svg" style="display:none">
  <defs><style>.cls-1{fill:#777677;}</style></defs>
  <symbol viewBox="0 0 8 8" id="icon-calendar"><title>calendar</title> <path d="M 1.1715315,0 V 0.80461 H 0.76332296 C 0.3404548,0.80461 0,1.145065 0,1.567933 v 5.66882 C 0,7.659621 0.3404548,8 0.76332296,8 H 6.4146951 C 6.837563,8 7.1778675,7.659621 7.1778675,7.236753 V 1.567933 C 7.1778675,1.145065 6.837563,0.80461 6.4146951,0.80461 H 5.9940778 V 0 H 5.1681849 V 0.80461 H 1.9973491 V 0 Z M 0.80047384,2.799778 H 6.3947659 V 7.20261 H 0.80047384 Z M 1.4309109,3.547834 c -0.1036004,0 -0.1869577,0.08336 -0.1869577,0.186959 0,0.1036 0.083357,0.187033 0.1869577,0.187033 h 4.3043893 c 0.1036004,0 0.1870328,-0.08343 0.1870328,-0.187033 0,-0.103601 -0.083432,-0.186959 -0.1870328,-0.186959 z m -0.00323,0.849733 c -0.1036003,0 -0.1870329,0.08336 -0.1870329,0.186958 0,0.103601 0.083433,0.187033 0.1870329,0.187033 h 4.3043893 c 0.1036,0 0.1869573,-0.08343 0.1869573,-0.187033 0,-0.1036 -0.083357,-0.186958 -0.1869573,-0.186958 z m -4.48e-4,0.84492 c -0.1036003,0 -0.1869577,0.08343 -0.1869577,0.187033 0,0.1036 0.083357,0.186958 0.1869577,0.186958 h 4.3043892 c 0.1036004,0 0.1870328,-0.08336 0.1870328,-0.186958 0,-0.103601 -0.083432,-0.187033 -0.1870328,-0.187033 z m 0,0.85274 c -0.1036003,0 -0.1869577,0.08336 -0.1869577,0.186958 0,0.103601 0.083357,0.187033 0.1869577,0.187033 h 4.3043892 c 0.1036004,0 0.1870328,-0.08343 0.1870328,-0.187033 0,-0.1036 -0.083432,-0.186958 -0.1870328,-0.186958 z" /> </symbol>
  <symbol viewBox="0 0 8 8" id="icon-budget"><title>budget</title> <path d="M 4.000038,0 A 4.0000075,4.0000075 0 0 0 0,4.000038 4.0000075,4.0000075 0 0 0 4.000038,8 4.0000075,4.0000075 0 0 0 8,4.000038 4.0000075,4.0000075 0 0 0 4.000038,0 Z m 0.222653,1.080063 c 0.233468,0 0.459827,0.04288 0.679001,0.128646 0.221556,0.08338 0.435965,0.209607 0.643228,0.378752 V 2.34867 C 5.328128,2.098526 5.118483,1.919814 4.915986,1.812609 4.71587,1.705405 4.494276,1.651821 4.251279,1.651821 3.877254,1.651821 3.569972,1.770938 3.329357,2.00917 3.088742,2.247403 2.930336,2.589285 2.854102,3.03478 H 4.915986 L 4.719425,3.474263 H 2.79685 c -0.0048,0.05718 -0.0083,0.113179 -0.01066,0.167973 v 0.207299 0.196486 c 0.0024,0.05479 0.0059,0.110797 0.01066,0.167972 H 4.390664 L 4.190549,4.653551 H 2.854102 c 0.07623,0.445495 0.23464,0.78855 0.475255,1.029165 0.240615,0.240615 0.547897,0.360903 0.921922,0.360903 0.242997,0 0.464591,-0.05358 0.664707,-0.160788 C 5.118483,5.775627 5.328128,5.596915 5.54492,5.34677 V 6.100795 C 5.332893,6.272323 5.116063,6.400968 4.894506,6.486732 4.675333,6.572492 4.451394,6.615378 4.222691,6.615378 3.65808,6.615378 3.191144,6.442678 2.821884,6.097241 2.455006,5.751804 2.223958,5.270574 2.128664,4.653551 H 1.37464 L 1.571201,4.213993 h 0.496657 c 0,-0.05479 -0.0012,-0.109549 -0.0036,-0.164342 V 3.849535 3.642236 c 0.0024,-0.05718 0.0036,-0.11318 0.0036,-0.167973 H 1.37464 L 1.571201,3.03478 H 2.128664 C 2.223954,2.422523 2.456178,1.943637 2.825438,1.5982 3.194698,1.252763 3.660462,1.080063 4.222691,1.080063 Z" /> </symbol>
  <symbol viewBox="0 0 8 8" id="icon-vote"><title>vote</title> <path d="M 5.7839038,5.5344596e-5 C 5.7348318,9.943446e-4 5.6852268,0.01385534 5.6393706,0.03985534 L 1.674858,2.2874523 c -0.1467408,0.08319 -0.1979544,0.268294 -0.1147648,0.415035 0.1239224,0.218766 0.2156528,0.380637 0.3249448,0.573358 H 0.2460572 C 0.1097404,3.2758453 -2e-6,3.3855873 -2e-6,3.5219043 v 4.222035 c 0,0.136318 0.1097424,0.246061 0.2460592,0.246061 h 7.5078822 c 0.1363164,0 0.2460586,-0.109743 0.2460586,-0.246061 v -4.222035 c 0,-0.136317 -0.1097422,-0.246059 -0.2460586,-0.246059 H 6.5173795 c 0.2412288,-0.136939 0.4724382,-0.268216 0.7236831,-0.410649 0.1467416,-0.08319 0.1979541,-0.268295 0.1147647,-0.415036 L 6.0544038,0.15461734 c -0.057193,-0.100884 -0.1625409,-0.156626 -0.2705,-0.154561995404 z M 5.7331408,0.52476534 6.8867415,2.5596773 4.7793013,3.7544123 3.9597323,4.2190363 H 2.9607707 L 2.6973995,3.7544123 2.0501732,2.6127123 Z M 4.9420873,1.4102213 c -0.1070407,-0.0013 -0.2071084,0.06725 -0.2426905,0.175947 L 4.3677151,2.5992373 4.1916123,2.4303403 c -0.1201864,-0.115244 -0.2983176,-0.123242 -0.3993656,-0.01786 -0.101048,0.105382 -0.085639,0.283026 0.034546,0.398272 l 0.4281944,0.41057 c 0.1201859,0.115245 0.298317,0.123242 0.3993654,0.01786 0.025847,-0.02696 0.043954,-0.05868 0.054758,-0.09283 0.00966,-0.01619 0.017844,-0.03353 0.023972,-0.05225 l 0.4426076,-1.352039 c 0.043793,-0.133784 -0.027169,-0.276274 -0.1591035,-0.319463 -0.024738,-0.0081 -0.049798,-0.01208 -0.074499,-0.01238 z M 0.46806599,3.7544123 H 2.1562428 c 0.083986,0.148099 0.1791216,0.31605 0.2632928,0.464624 H 1.6643604 c -0.1344224,0 -0.2426896,0.108267 -0.2426896,0.242691 0,0.134424 0.1082672,0.242614 0.2426896,0.242614 h 4.6751141 c 0.134423,0 0.2426118,-0.10819 0.2426118,-0.242614 0,-0.134424 -0.1081888,-0.242691 -0.2426118,-0.242691 H 4.8530953 c 0.2737528,-0.154603 0.5474474,-0.309607 0.8208223,-0.464624 h 1.8587181 v 1.407658 H 0.46806599 Z" /> </symbol>
</svg>
